<?xml version="1.0" encoding="UTF-8"?>
<svg xmlns="http://www.w3.org/2000/svg" viewBox="0 0 960 560" role="img" aria-labelledby="t d">
  <title id="t">OmniPlayer four-tab chrome schematic</title>
  <desc id="d">Schematic of OmniPlayer: Settings, Player, Dashboard, Notes. Not a screenshot.</desc>
  <defs>
    <pattern id="paper" width="18" height="18" patternUnits="userSpaceOnUse">
      <rect width="18" height="18" fill="#efe8dc"/>
      <circle cx="2" cy="3" r="0.55" fill="#e2d8c8" opacity="0.7"/>
      <circle cx="11" cy="14" r="0.45" fill="#e4dccb" opacity="0.55"/>
    </pattern>
    <filter id="shadow" x="-8%" y="-8%" width="116%" height="124%">
      <feDropShadow dx="0" dy="8" stdDeviation="10" flood-color="#8a7d6a" flood-opacity="0.22"/>
    </filter>
    <linearGradient id="chrome" x1="0" y1="0" x2="0" y2="1">
      <stop offset="0%" stop-color="#e6e1da"/>
      <stop offset="100%" stop-color="#d8d2ca"/>
    </linearGradient>
    <clipPath id="winclip">
      <rect x="56" y="58" width="848" height="430" rx="10"/>
    </clipPath>
  </defs>

  <rect width="960" height="560" fill="url(#paper)"/>
  <rect x="24" y="18" width="912" height="524" rx="4" fill="none" stroke="#c9bfb0" stroke-dasharray="5 7" opacity="0.55"/>

  <g filter="url(#shadow)">
    <rect x="56" y="58" width="848" height="430" rx="10" fill="#f7f5f2" stroke="#cfc8bd"/>
  </g>

  <g clip-path="url(#winclip)">
    <rect x="56" y="58" width="848" height="38" fill="url(#chrome)"/>
    <line x1="56" y1="96" x2="904" y2="96" stroke="#d0cbc3"/>
  </g>

  <g transform="translate(74,66)" fill="none">
    <path d="M2 12C5.2 6.8 18.6 6.6 22 12C19.2 16.2 5 16.4 2 12Z" fill="#f7f5f2" stroke="#3a1818" stroke-width="1.1"/>
    <circle cx="12.1" cy="11.4" r="4.4" fill="#6b1f1c"/>
    <circle cx="12.1" cy="11.4" r="1.5" fill="#1a0808"/>
    <ellipse cx="10.5" cy="10.1" rx="1" ry="0.8" fill="#fff"/>
  </g>

  <rect x="112" y="66" width="428" height="22" rx="11" fill="#e2ddd5"/>
  <rect id="pill" x="116" y="68" width="96" height="18" rx="9" fill="#2c2a27">
    <animate attributeName="x" values="116;220;324;428;116" keyTimes="0;0.25;0.5;0.75;1" dur="10s" repeatCount="indefinite" calcMode="discrete"/>
    <animate attributeName="width" values="96;96;96;80;96" keyTimes="0;0.25;0.5;0.75;1" dur="10s" repeatCount="indefinite" calcMode="discrete"/>
  </rect>
  <text x="164" y="81" text-anchor="middle" font-family="Segoe UI, sans-serif" font-size="11" font-weight="600" fill="#f3f0ea">
    &#x8bbe;&#x7f6e;
    <animate attributeName="fill" values="#f3f0ea;#6a6560;#6a6560;#6a6560;#f3f0ea" keyTimes="0;0.25;0.5;0.75;1" dur="10s" repeatCount="indefinite" calcMode="discrete"/>
  </text>
  <text x="268" y="81" text-anchor="middle" font-family="Segoe UI, sans-serif" font-size="11" font-weight="600" fill="#6a6560">
    &#x64ad;&#x653e;&#x5668;
    <animate attributeName="fill" values="#6a6560;#f3f0ea;#6a6560;#6a6560;#6a6560" keyTimes="0;0.25;0.5;0.75;1" dur="10s" repeatCount="indefinite" calcMode="discrete"/>
  </text>
  <text x="372" y="81" text-anchor="middle" font-family="Segoe UI, sans-serif" font-size="11" font-weight="600" fill="#6a6560">
    &#x4eea;&#x8868;&#x76d8;
    <animate attributeName="fill" values="#6a6560;#6a6560;#f3f0ea;#6a6560;#6a6560" keyTimes="0;0.25;0.5;0.75;1" dur="10s" repeatCount="indefinite" calcMode="discrete"/>
  </text>
  <text x="468" y="81" text-anchor="middle" font-family="Segoe UI, sans-serif" font-size="11" font-weight="600" fill="#6a6560">
    &#x7b14;&#x8bb0;
    <animate attributeName="fill" values="#6a6560;#6a6560;#6a6560;#f3f0ea;#6a6560" keyTimes="0;0.25;0.5;0.75;1" dur="10s" repeatCount="indefinite" calcMode="discrete"/>
  </text>

  <text x="710" y="81" font-family="Segoe UI, sans-serif" font-size="10" fill="#6a6560">&#x5173;&#x4e8e;</text>
  <text x="748" y="81" font-family="Segoe UI, sans-serif" font-size="10" fill="#6a6560">&#x53cd;&#x9988;</text>
  <g fill="#555" font-family="Segoe UI, sans-serif" font-size="12">
    <text x="800" y="81">-</text>
    <text x="828" y="81">o</text>
    <text x="856" y="81">x</text>
  </g>

  <g id="page-settings" opacity="1">
    <animate attributeName="opacity" values="1;0;0;0;1" keyTimes="0;0.25;0.5;0.75;1" dur="10s" repeatCount="indefinite" calcMode="discrete"/>
    <text x="88" y="128" font-family="Segoe UI, sans-serif" font-size="18" fill="#2a2a2a" font-weight="600">&#x8bbe;&#x7f6e;</text>
    <text x="88" y="148" font-family="Segoe UI, sans-serif" font-size="11" fill="#6a6560">WinRecorder / LLM / UI</text>
    <rect x="88" y="168" width="250" height="88" rx="8" fill="#fff" stroke="#d0cbc3"/>
    <circle cx="118" cy="206" r="10" fill="#1f6f5b"/>
    <rect x="138" y="198" width="120" height="8" rx="3" fill="#d8d3cb"/>
    <rect x="138" y="214" width="80" height="6" rx="3" fill="#ece7e0"/>
    <rect x="354" y="168" width="250" height="88" rx="8" fill="#fff" stroke="#d0cbc3"/>
    <rect x="374" y="190" width="40" height="20" rx="10" fill="#e2ddd5"/>
    <rect x="424" y="194" width="140" height="8" rx="3" fill="#d8d3cb"/>
    <rect x="620" y="168" width="250" height="88" rx="8" fill="#fff" stroke="#d0cbc3"/>
    <rect x="640" y="188" width="210" height="8" rx="3" fill="#d8d3cb"/>
    <rect x="640" y="206" width="160" height="6" rx="3" fill="#ece7e0"/>
    <rect x="88" y="272" width="782" height="176" rx="8" fill="#fff" stroke="#d0cbc3"/>
    <rect x="108" y="292" width="90" height="136" rx="6" fill="#f7f5f2" stroke="#e2ddd5"/>
    <rect x="216" y="292" width="634" height="28" rx="4" fill="#f7f5f2"/>
    <rect x="216" y="332" width="634" height="28" rx="4" fill="#f7f5f2"/>
    <rect x="216" y="372" width="420" height="28" rx="4" fill="#f7f5f2"/>
  </g>

  <g id="page-player" opacity="0">
    <animate attributeName="opacity" values="0;1;0;0;0" keyTimes="0;0.25;0.5;0.75;1" dur="10s" repeatCount="indefinite" calcMode="discrete"/>
    <rect x="72" y="108" width="816" height="272" rx="2" fill="#111"/>
    <text x="480" y="248" text-anchor="middle" font-family="Segoe UI, sans-serif" font-size="12" fill="#5a5a5a">stage</text>
    <circle cx="210" cy="190" r="5" fill="#c8c4bc"/>
    <rect x="72" y="388" width="816" height="80" fill="#1a1917"/>
    <rect x="92" y="430" width="776" height="8" rx="4" fill="#2c2a27"/>
    <rect x="92" y="430" width="240" height="8" rx="4" fill="#1f6f5b" opacity="0.85"/>
    <rect x="328" y="422" width="2" height="24" fill="#e8c547"/>
    <text x="92" y="414" font-family="Consolas, monospace" font-size="10" fill="#8a9a90">00:00:00</text>
  </g>

  <g id="page-dashboard" opacity="0">
    <animate attributeName="opacity" values="0;0;1;0;0" keyTimes="0;0.25;0.5;0.75;1" dur="10s" repeatCount="indefinite" calcMode="discrete"/>
    <rect x="88" y="118" width="782" height="120" rx="8" fill="#fff" stroke="#d0cbc3"/>
    <rect x="108" y="168" width="90" height="14" rx="2" fill="#3d9a6a"/>
    <rect x="206" y="160" width="40" height="22" rx="2" fill="#3d9a6a" opacity="0.55"/>
    <rect x="254" y="168" width="120" height="14" rx="2" fill="#3d9a6a"/>
    <rect x="384" y="174" width="70" height="8" rx="2" fill="#d0cbc3"/>
    <rect x="88" y="254" width="382" height="194" rx="8" fill="#fff" stroke="#d0cbc3"/>
    <polyline points="120,400 160,360 200,372 248,310 300,330 360,280 420,300" fill="none" stroke="#1f6f5b" stroke-width="2"/>
    <rect x="488" y="254" width="382" height="194" rx="8" fill="#fff" stroke="#d0cbc3"/>
    <rect x="516" y="384" width="28" height="36" fill="#c45c2d" opacity="0.75"/>
    <rect x="552" y="360" width="28" height="60" fill="#1f6f5b" opacity="0.55"/>
    <rect x="588" y="340" width="28" height="80" fill="#1f6f5b"/>
    <rect x="624" y="352" width="28" height="68" fill="#1f6f5b" opacity="0.7"/>
    <rect x="660" y="328" width="28" height="92" fill="#1f6f5b"/>
    <rect x="696" y="368" width="28" height="52" fill="#1f6f5b" opacity="0.5"/>
    <rect x="732" y="348" width="28" height="72" fill="#1f6f5b" opacity="0.8"/>
    <rect x="768" y="376" width="28" height="44" fill="#1f6f5b" opacity="0.45"/>
  </g>

  <g id="page-notes" opacity="0">
    <animate attributeName="opacity" values="0;0;0;1;0" keyTimes="0;0.25;0.5;0.75;1" dur="10s" repeatCount="indefinite" calcMode="discrete"/>
    <rect x="88" y="118" width="210" height="330" rx="8" fill="#fff" stroke="#d0cbc3"/>
    <rect x="104" y="138" width="178" height="22" rx="6" fill="#2c2a27"/>
    <rect x="104" y="172" width="178" height="18" rx="4" fill="#f7f5f2"/>
    <rect x="104" y="198" width="178" height="18" rx="4" fill="#f7f5f2"/>
    <rect x="104" y="224" width="178" height="18" rx="4" fill="#f7f5f2"/>
    <rect x="318" y="118" width="552" height="250" rx="8" fill="#fff" stroke="#d0cbc3"/>
    <rect x="338" y="140" width="420" height="48" rx="8" fill="#f7f5f2"/>
    <rect x="398" y="210" width="452" height="64" rx="8" fill="#eef6f3" stroke="#c5ddd4"/>
    <rect x="338" y="292" width="360" height="48" rx="8" fill="#f7f5f2"/>
    <rect x="318" y="384" width="552" height="64" rx="8" fill="#fff" stroke="#d0cbc3"/>
    <rect x="338" y="404" width="420" height="24" rx="6" fill="#f7f5f2"/>
    <circle cx="830" cy="416" r="10" fill="#1f6f5b"/>
  </g>

  <text x="480" y="516" text-anchor="middle" font-family="Segoe UI, sans-serif" font-size="12" fill="#6a6560">&#x793a;&#x610f;&#x56fe; / schematic - not a screenshot</text>
  <text x="480" y="534" text-anchor="middle" font-family="Segoe UI, sans-serif" font-size="11" fill="#8a8276">OmniPlayer  &#x8bbe;&#x7f6e; / &#x64ad;&#x653e;&#x5668; / &#x4eea;&#x8868;&#x76d8; / &#x7b14;&#x8bb0;</text>
</svg>
